<svg width="338" height="77" viewBox="0 0 338 77" fill="none" xmlns="http://www.w3.org/2000/svg">
<path d="M77.6944 35.2047L67.9271 40.4956L58.3818 45.583L48.6145 40.4956L38.8472 35.2047L29.0799 40.4956L19.5346 45.583L9.7673 40.4956L0 35.2047L9.7673 30.1172L19.5346 25.0298L29.0799 19.9424L38.8472 14.6514L48.6145 19.9424L58.3818 25.0298L67.9271 30.1172L77.6944 35.2047Z" fill="white"/>
<path d="M77.6562 10.3509L67.8987 15.4249L58.363 20.4988L48.6055 15.4249L38.8481 10.3509L29.0906 15.4249L19.5549 20.4988L9.79739 15.4249L0.039917 10.3509L9.79739 5.07403L19.5549 9.15527e-05L29.0906 5.07403L38.8481 10.3509L48.6055 5.07403L58.363 9.15527e-05L67.8987 5.07403L77.6562 10.3509Z" fill="white"/>
<path d="M58.3614 25.1669L48.604 30.2409L38.8465 35.3148L29.089 30.2409L19.5533 25.1669L29.089 20.093L38.8465 14.8161L48.604 20.093L58.3614 25.1669Z" fill="white"/>
<path d="M77.6558 56.0159L68.1201 61.0898L58.3626 66.1638L48.6051 71.2377L38.8476 76.5146L29.0902 71.2377L19.5544 66.1638L9.79697 61.0898L0.0394897 56.0159L9.79697 50.739L19.5544 45.6651L29.0902 50.739L38.8476 56.0159L48.6051 50.739L58.3626 45.6651L68.1201 50.739L77.6558 56.0159Z" fill="white"/>
<path d="M77.6544 10.3508L67.8969 15.4248L58.3612 20.4987L48.6037 15.4248L38.8462 10.3508L29.0888 15.4248L19.553 20.4987L9.79556 15.4248L0.0380859 10.3508L9.79556 5.07394L19.553 0L29.0888 5.07394L38.8462 10.3508L48.6037 5.07394L58.3612 0L67.8969 5.07394L77.6544 10.3508Z" fill="white"/>
<path d="M58.36 25.1669L48.6025 30.2409L38.845 35.3148L29.0875 30.2409L19.5518 25.1669L29.0875 20.093L38.845 14.8161L48.6025 20.093L58.36 25.1669Z" fill="white"/>
<path d="M77.6543 56.0159L68.1186 61.0898L58.3611 66.1638L48.6036 71.2377L38.8462 76.5146L29.0887 71.2377L19.553 66.1638L9.7955 61.0898L0.0380249 56.0159L9.7955 50.739L19.553 45.6651L29.0887 50.739L38.8462 56.0159L48.6036 50.739L58.3611 45.6651L68.1186 50.739L77.6543 56.0159Z" fill="white"/>
<g clip-path="url(#clip0_2_631)">
<path d="M139.571 57.2104V37.0763L129.56 53.6221H126.156L116.345 37.6743V57.4097H108.937V23.72H115.344L127.958 44.6515L140.372 23.72H146.779V57.4097H139.571V57.2104Z" fill="white"/>
<path d="M180.215 31.4944L168.402 58.805C167.201 61.7952 165.799 63.7887 163.997 65.1841C162.195 66.3802 160.193 66.9782 157.59 66.9782C156.189 66.9782 154.988 66.7789 153.586 66.3802C152.184 65.9815 151.183 65.3835 150.383 64.5861L153.186 59.2037C153.786 59.8017 154.387 60.2004 155.188 60.3998C155.989 60.5991 156.79 60.7985 157.39 60.7985C158.391 60.7985 159.192 60.5991 159.993 60.0011C160.594 59.6024 161.194 58.6057 161.795 57.6089V57.4096L150.583 31.4944H158.391L165.599 49.037L173.007 31.4944H180.215Z" fill="white"/>
<path d="M205.243 32.6906C207.045 33.8866 208.646 35.4814 209.848 37.4749C211.049 39.4684 211.449 41.8605 211.449 44.4521C211.449 47.0436 210.849 49.4357 209.848 51.4292C208.646 53.4227 207.245 55.0175 205.243 56.0142C203.24 57.0109 201.038 57.609 198.635 57.609C195.031 57.609 192.429 56.4129 190.426 54.2201V57.2103H183.218V21.7264H190.827V34.2853C192.629 32.2919 195.232 31.0958 198.635 31.0958C201.038 31.0958 203.24 31.6938 205.243 32.6906ZM202.039 49.6351C203.24 48.2397 203.841 46.6449 203.841 44.4521C203.841 42.2592 203.24 40.4651 202.039 39.269C200.838 37.8736 199.236 37.2755 197.234 37.2755C195.232 37.2755 193.63 37.8736 192.429 39.269C191.227 40.4651 190.627 42.2592 190.627 44.4521C190.627 46.6449 191.227 48.439 192.429 49.6351C193.63 50.8312 195.232 51.6286 197.234 51.6286C199.236 51.6286 200.838 50.8312 202.039 49.6351Z" fill="white"/>
<path d="M216.855 26.71C216.054 25.9126 215.454 24.9159 215.454 23.7198C215.454 22.5237 215.854 21.527 216.855 20.7296C217.656 19.9322 218.857 19.5335 220.259 19.5335C221.66 19.5335 222.862 19.9322 223.663 20.7296C224.463 21.527 224.864 22.3243 224.864 23.5204C224.864 24.7165 224.463 25.7133 223.462 26.71C222.461 27.7067 221.46 27.9061 220.059 27.9061C218.657 27.9061 217.856 27.5074 216.855 26.71ZM216.455 31.4943H224.063V57.4095H216.455V31.4943Z" fill="white"/>
<path d="M254.497 33.8867C256.499 35.8802 257.5 38.6711 257.5 42.4587V57.2104H249.892V43.6548C249.892 41.6613 249.491 40.0665 248.49 39.0698C247.489 38.073 246.288 37.475 244.486 37.475C242.684 37.475 241.082 38.073 239.881 39.2691C238.679 40.4652 238.279 42.2593 238.279 44.4521V57.2104H231.071V31.4946H238.279V34.4848C239.28 33.488 240.481 32.4913 242.083 31.8932C243.485 31.2952 245.086 31.0959 246.888 31.0959C250.092 31.0959 252.495 32.0926 254.497 33.8867Z" fill="white"/>
<path d="M290.937 21.7264V57.4096H283.729V54.4194C281.927 56.6123 279.124 57.8083 275.72 57.8083C273.317 57.8083 271.115 57.2103 269.113 56.2136C267.11 55.2168 265.509 53.622 264.508 51.6286C263.306 49.6351 262.906 47.2429 262.906 44.6514C262.906 42.0599 263.306 39.4684 264.508 37.4749C265.709 35.4814 267.11 33.8866 269.113 32.8899C271.115 31.8932 273.317 31.2951 275.72 31.2951C279.124 31.2951 281.526 32.2919 283.528 34.4847V21.7264H290.937ZM281.726 49.6351C282.928 48.2397 283.528 46.6449 283.528 44.4521C283.528 42.2592 282.928 40.4651 281.726 39.269C280.525 37.8736 278.923 37.2755 276.921 37.2755C274.919 37.2755 273.317 37.8736 272.116 39.269C270.915 40.4651 270.314 42.2592 270.314 44.4521C270.314 46.6449 270.915 48.439 272.116 49.6351C273.317 50.8312 274.919 51.6286 276.921 51.6286C278.923 51.6286 280.525 50.8312 281.726 49.6351Z" fill="white"/>
<path d="M297.945 21.7264H305.553V57.4096H297.945V21.7264Z" fill="white"/>
<path d="M337.788 46.4455H318.167C318.567 48.0403 319.368 49.2364 320.769 50.2331C322.171 51.2299 323.773 51.6286 325.775 51.6286C327.176 51.6286 328.378 51.4292 329.379 51.0305C330.38 50.6318 331.381 50.0338 332.382 49.0371L336.387 53.4227C333.984 56.2136 330.38 57.609 325.775 57.609C322.772 57.609 320.169 57.011 317.966 55.8149C315.764 54.6188 313.962 53.024 312.761 51.0305C311.559 49.0371 310.959 46.6449 310.959 44.2527C310.959 41.6612 311.559 39.4684 312.761 37.4749C313.962 35.4814 315.564 33.8866 317.766 32.6906C319.969 31.4945 322.171 30.8964 324.774 30.8964C327.377 30.8964 329.579 31.4945 331.581 32.4912C333.583 33.4879 335.185 35.0827 336.387 37.0762C337.588 39.0697 338.189 41.4618 338.189 44.0534C337.788 44.6514 337.788 45.2494 337.788 46.4455ZM320.169 38.2723C318.967 39.269 318.367 40.4651 317.966 42.2592H330.78C330.58 40.6645 329.779 39.269 328.578 38.2723C327.377 37.2755 325.975 36.8769 324.373 36.8769C322.772 36.6775 321.37 37.2755 320.169 38.2723Z" fill="white"/>
</g>
<defs>
<clipPath id="clip0_2_631">
<rect width="228.851" height="47.4447" fill="white" transform="translate(108.937 19.5335)"/>
</clipPath>
</defs>
</svg>
